<mxfile host="app.diagrams.net" modified="2023-07-31T15:00:53.636Z" agent="Mozilla/5.0 (Windows NT 10.0; Win64; x64) AppleWebKit/537.36 (KHTML, like Gecko) Chrome/115.0.0.0 Safari/537.36" etag="lM0EMYLyMXvcIeYlARSo" version="21.6.6" type="github">
  <diagram name="페이지-1" id="v46Kw6hZMWN8n9hihEqH">
    <mxGraphModel dx="712" dy="771" grid="1" gridSize="10" guides="1" tooltips="1" connect="1" arrows="1" fold="1" page="1" pageScale="1" pageWidth="827" pageHeight="1169" math="0" shadow="0">
      <root>
        <mxCell id="0" />
        <mxCell id="1" parent="0" />
        <mxCell id="YnKkO9R4rvAmFaV1i0---742" value="" style="swimlane;startSize=0;" parent="1" vertex="1">
          <mxGeometry x="20" y="1140" width="560" height="560" as="geometry" />
        </mxCell>
        <mxCell id="YnKkO9R4rvAmFaV1i0---701" value="Region" style="points=[[0,0],[0.25,0],[0.5,0],[0.75,0],[1,0],[1,0.25],[1,0.5],[1,0.75],[1,1],[0.75,1],[0.5,1],[0.25,1],[0,1],[0,0.75],[0,0.5],[0,0.25]];outlineConnect=0;gradientColor=none;html=1;whiteSpace=wrap;fontSize=12;fontStyle=0;container=1;pointerEvents=0;collapsible=0;recursiveResize=0;shape=mxgraph.aws4.group;grIcon=mxgraph.aws4.group_region;strokeColor=#147EBA;fillColor=none;verticalAlign=top;align=left;spacingLeft=30;fontColor=#147EBA;dashed=1;" parent="YnKkO9R4rvAmFaV1i0---742" vertex="1">
          <mxGeometry x="20" y="100" width="510" height="440" as="geometry" />
        </mxCell>
        <mxCell id="YnKkO9R4rvAmFaV1i0---702" value="Spoke VPC" style="points=[[0,0],[0.25,0],[0.5,0],[0.75,0],[1,0],[1,0.25],[1,0.5],[1,0.75],[1,1],[0.75,1],[0.5,1],[0.25,1],[0,1],[0,0.75],[0,0.5],[0,0.25]];outlineConnect=0;gradientColor=none;html=1;whiteSpace=wrap;fontSize=12;fontStyle=0;container=1;pointerEvents=0;collapsible=0;recursiveResize=0;shape=mxgraph.aws4.group;grIcon=mxgraph.aws4.group_vpc;strokeColor=#248814;fillColor=none;verticalAlign=top;align=left;spacingLeft=30;fontColor=#AAB7B8;dashed=0;" parent="YnKkO9R4rvAmFaV1i0---701" vertex="1">
          <mxGeometry x="30" y="60" width="230" height="350" as="geometry" />
        </mxCell>
        <mxCell id="YnKkO9R4rvAmFaV1i0---707" value="Public subnet" style="points=[[0,0],[0.25,0],[0.5,0],[0.75,0],[1,0],[1,0.25],[1,0.5],[1,0.75],[1,1],[0.75,1],[0.5,1],[0.25,1],[0,1],[0,0.75],[0,0.5],[0,0.25]];outlineConnect=0;gradientColor=none;html=1;whiteSpace=wrap;fontSize=12;fontStyle=0;container=1;pointerEvents=0;collapsible=0;recursiveResize=0;shape=mxgraph.aws4.group;grIcon=mxgraph.aws4.group_security_group;grStroke=0;strokeColor=#248814;fillColor=#E9F3E6;verticalAlign=top;align=left;spacingLeft=30;fontColor=#248814;dashed=0;" parent="YnKkO9R4rvAmFaV1i0---702" vertex="1">
          <mxGeometry x="90" y="60" width="130" height="130" as="geometry" />
        </mxCell>
        <mxCell id="YnKkO9R4rvAmFaV1i0---709" value="" style="sketch=0;outlineConnect=0;fontColor=#232F3E;gradientColor=none;fillColor=#4D27AA;strokeColor=none;dashed=0;verticalLabelPosition=bottom;verticalAlign=top;align=center;html=1;fontSize=12;fontStyle=0;aspect=fixed;pointerEvents=1;shape=mxgraph.aws4.elastic_network_interface;" parent="YnKkO9R4rvAmFaV1i0---707" vertex="1">
          <mxGeometry x="46" y="54" width="40" height="40" as="geometry" />
        </mxCell>
        <mxCell id="YnKkO9R4rvAmFaV1i0---708" value="Private subnet" style="points=[[0,0],[0.25,0],[0.5,0],[0.75,0],[1,0],[1,0.25],[1,0.5],[1,0.75],[1,1],[0.75,1],[0.5,1],[0.25,1],[0,1],[0,0.75],[0,0.5],[0,0.25]];outlineConnect=0;gradientColor=none;html=1;whiteSpace=wrap;fontSize=12;fontStyle=0;container=1;pointerEvents=0;collapsible=0;recursiveResize=0;shape=mxgraph.aws4.group;grIcon=mxgraph.aws4.group_security_group;grStroke=0;strokeColor=#147EBA;fillColor=#E6F2F8;verticalAlign=top;align=left;spacingLeft=30;fontColor=#147EBA;dashed=0;" parent="YnKkO9R4rvAmFaV1i0---702" vertex="1">
          <mxGeometry x="90" y="210" width="130" height="130" as="geometry" />
        </mxCell>
        <mxCell id="YnKkO9R4rvAmFaV1i0---710" value="95.75.20.100" style="sketch=0;outlineConnect=0;fontColor=#232F3E;gradientColor=none;fillColor=#D45B07;strokeColor=none;dashed=0;verticalLabelPosition=bottom;verticalAlign=top;align=center;html=1;fontSize=12;fontStyle=0;aspect=fixed;pointerEvents=1;shape=mxgraph.aws4.instance2;" parent="YnKkO9R4rvAmFaV1i0---708" vertex="1">
          <mxGeometry x="42" y="50" width="48" height="48" as="geometry" />
        </mxCell>
        <mxCell id="YnKkO9R4rvAmFaV1i0---711" value="92.75.100.0/24" style="text;html=1;strokeColor=none;fillColor=none;align=center;verticalAlign=middle;whiteSpace=wrap;rounded=0;" parent="YnKkO9R4rvAmFaV1i0---702" vertex="1">
          <mxGeometry x="125" y="40" width="60" height="30" as="geometry" />
        </mxCell>
        <mxCell id="YnKkO9R4rvAmFaV1i0---718" value="92.75.20.0/24" style="text;html=1;strokeColor=none;fillColor=none;align=center;verticalAlign=middle;whiteSpace=wrap;rounded=0;" parent="YnKkO9R4rvAmFaV1i0---702" vertex="1">
          <mxGeometry x="125" y="190" width="60" height="30" as="geometry" />
        </mxCell>
        <mxCell id="YnKkO9R4rvAmFaV1i0---733" value="2" style="text;html=1;strokeColor=none;fillColor=#FFCCCC;align=center;verticalAlign=middle;whiteSpace=wrap;rounded=0;" parent="YnKkO9R4rvAmFaV1i0---702" vertex="1">
          <mxGeometry x="60" y="50" width="25" height="20" as="geometry" />
        </mxCell>
        <mxCell id="YnKkO9R4rvAmFaV1i0---738" style="edgeStyle=orthogonalEdgeStyle;rounded=0;orthogonalLoop=1;jettySize=auto;html=1;" parent="YnKkO9R4rvAmFaV1i0---702" source="YnKkO9R4rvAmFaV1i0---709" target="YnKkO9R4rvAmFaV1i0---710" edge="1">
          <mxGeometry relative="1" as="geometry">
            <Array as="points">
              <mxPoint x="20" y="150" />
              <mxPoint x="20" y="284" />
            </Array>
          </mxGeometry>
        </mxCell>
        <mxCell id="YnKkO9R4rvAmFaV1i0---741" value="7" style="text;html=1;strokeColor=none;fillColor=#FFCCCC;align=center;verticalAlign=middle;whiteSpace=wrap;rounded=0;" parent="YnKkO9R4rvAmFaV1i0---702" vertex="1">
          <mxGeometry x="30" y="210" width="25" height="20" as="geometry" />
        </mxCell>
        <mxCell id="YnKkO9R4rvAmFaV1i0---703" value="92.75.0.0/16" style="text;html=1;strokeColor=none;fillColor=none;align=center;verticalAlign=middle;whiteSpace=wrap;rounded=0;" parent="YnKkO9R4rvAmFaV1i0---701" vertex="1">
          <mxGeometry x="30" y="30" width="60" height="30" as="geometry" />
        </mxCell>
        <mxCell id="YnKkO9R4rvAmFaV1i0---729" style="edgeStyle=orthogonalEdgeStyle;rounded=0;orthogonalLoop=1;jettySize=auto;html=1;" parent="YnKkO9R4rvAmFaV1i0---701" source="YnKkO9R4rvAmFaV1i0---704" target="YnKkO9R4rvAmFaV1i0---709" edge="1">
          <mxGeometry relative="1" as="geometry">
            <Array as="points">
              <mxPoint x="80" y="64" />
              <mxPoint x="80" y="190" />
            </Array>
          </mxGeometry>
        </mxCell>
        <mxCell id="YnKkO9R4rvAmFaV1i0---704" value="" style="sketch=0;outlineConnect=0;fontColor=#232F3E;gradientColor=none;fillColor=#4D27AA;strokeColor=none;dashed=0;verticalLabelPosition=bottom;verticalAlign=top;align=center;html=1;fontSize=12;fontStyle=0;aspect=fixed;pointerEvents=1;shape=mxgraph.aws4.internet_gateway;" parent="YnKkO9R4rvAmFaV1i0---701" vertex="1">
          <mxGeometry x="141" y="50" width="28" height="28" as="geometry" />
        </mxCell>
        <mxCell id="YnKkO9R4rvAmFaV1i0---712" value="Appliance VPC" style="points=[[0,0],[0.25,0],[0.5,0],[0.75,0],[1,0],[1,0.25],[1,0.5],[1,0.75],[1,1],[0.75,1],[0.5,1],[0.25,1],[0,1],[0,0.75],[0,0.5],[0,0.25]];outlineConnect=0;gradientColor=none;html=1;whiteSpace=wrap;fontSize=12;fontStyle=0;container=1;pointerEvents=0;collapsible=0;recursiveResize=0;shape=mxgraph.aws4.group;grIcon=mxgraph.aws4.group_vpc;strokeColor=#248814;fillColor=none;verticalAlign=top;align=left;spacingLeft=30;fontColor=#AAB7B8;dashed=0;" parent="YnKkO9R4rvAmFaV1i0---701" vertex="1">
          <mxGeometry x="310" y="60" width="170" height="350" as="geometry" />
        </mxCell>
        <mxCell id="YnKkO9R4rvAmFaV1i0---714" value="Private subnet" style="points=[[0,0],[0.25,0],[0.5,0],[0.75,0],[1,0],[1,0.25],[1,0.5],[1,0.75],[1,1],[0.75,1],[0.5,1],[0.25,1],[0,1],[0,0.75],[0,0.5],[0,0.25]];outlineConnect=0;gradientColor=none;html=1;whiteSpace=wrap;fontSize=12;fontStyle=0;container=1;pointerEvents=0;collapsible=0;recursiveResize=0;shape=mxgraph.aws4.group;grIcon=mxgraph.aws4.group_security_group;grStroke=0;strokeColor=#147EBA;fillColor=#E6F2F8;verticalAlign=top;align=left;spacingLeft=30;fontColor=#147EBA;dashed=0;" parent="YnKkO9R4rvAmFaV1i0---712" vertex="1">
          <mxGeometry x="34" y="60" width="130" height="130" as="geometry" />
        </mxCell>
        <mxCell id="YnKkO9R4rvAmFaV1i0---715" value="13.246.50.101" style="sketch=0;outlineConnect=0;fontColor=#232F3E;gradientColor=none;fillColor=#D45B07;strokeColor=none;dashed=0;verticalLabelPosition=bottom;verticalAlign=top;align=center;html=1;fontSize=12;fontStyle=0;aspect=fixed;pointerEvents=1;shape=mxgraph.aws4.instance2;" parent="YnKkO9R4rvAmFaV1i0---714" vertex="1">
          <mxGeometry x="42" y="50" width="48" height="48" as="geometry" />
        </mxCell>
        <mxCell id="YnKkO9R4rvAmFaV1i0---735" value="4" style="text;html=1;strokeColor=none;fillColor=#FFCCCC;align=center;verticalAlign=middle;whiteSpace=wrap;rounded=0;" parent="YnKkO9R4rvAmFaV1i0---714" vertex="1">
          <mxGeometry x="1" y="94" width="25" height="20" as="geometry" />
        </mxCell>
        <mxCell id="YnKkO9R4rvAmFaV1i0---739" value="5" style="text;html=1;strokeColor=none;fillColor=#FFCCCC;align=center;verticalAlign=middle;whiteSpace=wrap;rounded=0;" parent="YnKkO9R4rvAmFaV1i0---714" vertex="1">
          <mxGeometry x="90" y="64" width="25" height="20" as="geometry" />
        </mxCell>
        <mxCell id="YnKkO9R4rvAmFaV1i0---716" value="Private subnet" style="points=[[0,0],[0.25,0],[0.5,0],[0.75,0],[1,0],[1,0.25],[1,0.5],[1,0.75],[1,1],[0.75,1],[0.5,1],[0.25,1],[0,1],[0,0.75],[0,0.5],[0,0.25]];outlineConnect=0;gradientColor=none;html=1;whiteSpace=wrap;fontSize=12;fontStyle=0;container=1;pointerEvents=0;collapsible=0;recursiveResize=0;shape=mxgraph.aws4.group;grIcon=mxgraph.aws4.group_security_group;grStroke=0;strokeColor=#147EBA;fillColor=#E6F2F8;verticalAlign=top;align=left;spacingLeft=30;fontColor=#147EBA;dashed=0;" parent="YnKkO9R4rvAmFaV1i0---712" vertex="1">
          <mxGeometry x="34" y="210" width="130" height="130" as="geometry" />
        </mxCell>
        <mxCell id="YnKkO9R4rvAmFaV1i0---717" value="13.246.70.101" style="sketch=0;outlineConnect=0;fontColor=#232F3E;gradientColor=none;fillColor=#D45B07;strokeColor=none;dashed=0;verticalLabelPosition=bottom;verticalAlign=top;align=center;html=1;fontSize=12;fontStyle=0;aspect=fixed;pointerEvents=1;shape=mxgraph.aws4.instance2;" parent="YnKkO9R4rvAmFaV1i0---716" vertex="1">
          <mxGeometry x="42" y="50" width="48" height="48" as="geometry" />
        </mxCell>
        <mxCell id="YnKkO9R4rvAmFaV1i0---720" value="13.246.50.0/24" style="text;html=1;strokeColor=none;fillColor=none;align=center;verticalAlign=middle;whiteSpace=wrap;rounded=0;" parent="YnKkO9R4rvAmFaV1i0---712" vertex="1">
          <mxGeometry x="69" y="40" width="60" height="30" as="geometry" />
        </mxCell>
        <mxCell id="YnKkO9R4rvAmFaV1i0---721" value="13.246.70.0/24" style="text;html=1;strokeColor=none;fillColor=none;align=center;verticalAlign=middle;whiteSpace=wrap;rounded=0;" parent="YnKkO9R4rvAmFaV1i0---712" vertex="1">
          <mxGeometry x="69" y="190" width="60" height="30" as="geometry" />
        </mxCell>
        <mxCell id="YnKkO9R4rvAmFaV1i0---722" value="GWLB" style="sketch=0;outlineConnect=0;fontColor=#232F3E;gradientColor=none;fillColor=#4D27AA;strokeColor=none;dashed=0;verticalLabelPosition=bottom;verticalAlign=top;align=center;html=1;fontSize=12;fontStyle=0;aspect=fixed;pointerEvents=1;shape=mxgraph.aws4.gateway_load_balancer;" parent="YnKkO9R4rvAmFaV1i0---712" vertex="1">
          <mxGeometry x="7" y="190" width="27" height="27" as="geometry" />
        </mxCell>
        <mxCell id="YnKkO9R4rvAmFaV1i0---725" value="" style="endArrow=classic;startArrow=classic;html=1;rounded=0;" parent="YnKkO9R4rvAmFaV1i0---712" source="YnKkO9R4rvAmFaV1i0---722" target="YnKkO9R4rvAmFaV1i0---715" edge="1">
          <mxGeometry width="50" height="50" relative="1" as="geometry">
            <mxPoint x="10" y="180" as="sourcePoint" />
            <mxPoint x="60" y="130" as="targetPoint" />
          </mxGeometry>
        </mxCell>
        <mxCell id="YnKkO9R4rvAmFaV1i0---726" value="" style="endArrow=classic;startArrow=classic;html=1;rounded=0;" parent="YnKkO9R4rvAmFaV1i0---712" source="YnKkO9R4rvAmFaV1i0---722" target="YnKkO9R4rvAmFaV1i0---717" edge="1">
          <mxGeometry width="50" height="50" relative="1" as="geometry">
            <mxPoint x="20" y="300" as="sourcePoint" />
            <mxPoint x="70" y="250" as="targetPoint" />
          </mxGeometry>
        </mxCell>
        <mxCell id="YnKkO9R4rvAmFaV1i0---713" value="13.246.0.0/16" style="text;html=1;strokeColor=none;fillColor=none;align=center;verticalAlign=middle;whiteSpace=wrap;rounded=0;" parent="YnKkO9R4rvAmFaV1i0---701" vertex="1">
          <mxGeometry x="310" y="30" width="60" height="30" as="geometry" />
        </mxCell>
        <mxCell id="YnKkO9R4rvAmFaV1i0---723" value="" style="shape=flexArrow;endArrow=classic;startArrow=classic;html=1;rounded=0;" parent="YnKkO9R4rvAmFaV1i0---701" source="YnKkO9R4rvAmFaV1i0---709" target="YnKkO9R4rvAmFaV1i0---722" edge="1">
          <mxGeometry width="100" height="100" relative="1" as="geometry">
            <mxPoint x="350" y="-30" as="sourcePoint" />
            <mxPoint x="470" y="-30" as="targetPoint" />
          </mxGeometry>
        </mxCell>
        <mxCell id="YnKkO9R4rvAmFaV1i0---719" value="Private&lt;br&gt;Link" style="sketch=0;points=[[0,0,0],[0.25,0,0],[0.5,0,0],[0.75,0,0],[1,0,0],[0,1,0],[0.25,1,0],[0.5,1,0],[0.75,1,0],[1,1,0],[0,0.25,0],[0,0.5,0],[0,0.75,0],[1,0.25,0],[1,0.5,0],[1,0.75,0]];outlineConnect=0;fontColor=#232F3E;gradientColor=#945DF2;gradientDirection=north;fillColor=#5A30B5;strokeColor=#ffffff;dashed=0;verticalLabelPosition=bottom;verticalAlign=top;align=center;html=1;fontSize=12;fontStyle=0;aspect=fixed;shape=mxgraph.aws4.resourceIcon;resIcon=mxgraph.aws4.vpc_privatelink;" parent="YnKkO9R4rvAmFaV1i0---701" vertex="1">
          <mxGeometry x="260" y="230" width="29" height="29" as="geometry" />
        </mxCell>
        <mxCell id="YnKkO9R4rvAmFaV1i0---734" value="3" style="text;html=1;strokeColor=none;fillColor=#FFCCCC;align=center;verticalAlign=middle;whiteSpace=wrap;rounded=0;" parent="YnKkO9R4rvAmFaV1i0---701" vertex="1">
          <mxGeometry x="260" y="200" width="25" height="20" as="geometry" />
        </mxCell>
        <mxCell id="YnKkO9R4rvAmFaV1i0---740" value="6" style="text;html=1;strokeColor=none;fillColor=#FFCCCC;align=center;verticalAlign=middle;whiteSpace=wrap;rounded=0;" parent="YnKkO9R4rvAmFaV1i0---701" vertex="1">
          <mxGeometry x="262" y="300" width="25" height="20" as="geometry" />
        </mxCell>
        <mxCell id="YnKkO9R4rvAmFaV1i0---705" value="Internet" style="sketch=0;outlineConnect=0;fontColor=#232F3E;gradientColor=none;fillColor=#232F3D;strokeColor=none;dashed=0;verticalLabelPosition=bottom;verticalAlign=top;align=center;html=1;fontSize=12;fontStyle=0;aspect=fixed;pointerEvents=1;shape=mxgraph.aws4.internet_alt2;" parent="YnKkO9R4rvAmFaV1i0---742" vertex="1">
          <mxGeometry x="152" y="30" width="38" height="38" as="geometry" />
        </mxCell>
        <mxCell id="YnKkO9R4rvAmFaV1i0---728" style="rounded=0;orthogonalLoop=1;jettySize=auto;html=1;" parent="YnKkO9R4rvAmFaV1i0---742" source="YnKkO9R4rvAmFaV1i0---705" target="YnKkO9R4rvAmFaV1i0---704" edge="1">
          <mxGeometry relative="1" as="geometry" />
        </mxCell>
        <mxCell id="YnKkO9R4rvAmFaV1i0---706" value="client" style="sketch=0;outlineConnect=0;fontColor=#232F3E;gradientColor=none;fillColor=#232F3D;strokeColor=none;dashed=0;verticalLabelPosition=bottom;verticalAlign=top;align=center;html=1;fontSize=12;fontStyle=0;aspect=fixed;pointerEvents=1;shape=mxgraph.aws4.client;" parent="YnKkO9R4rvAmFaV1i0---742" vertex="1">
          <mxGeometry x="264.61" y="34" width="30.79" height="30" as="geometry" />
        </mxCell>
        <mxCell id="YnKkO9R4rvAmFaV1i0---727" value="" style="endArrow=none;dashed=1;html=1;rounded=0;" parent="YnKkO9R4rvAmFaV1i0---742" source="YnKkO9R4rvAmFaV1i0---705" target="YnKkO9R4rvAmFaV1i0---706" edge="1">
          <mxGeometry width="50" height="50" relative="1" as="geometry">
            <mxPoint x="210" y="60" as="sourcePoint" />
            <mxPoint x="260" y="10" as="targetPoint" />
          </mxGeometry>
        </mxCell>
        <mxCell id="YnKkO9R4rvAmFaV1i0---732" value="1" style="text;html=1;strokeColor=none;fillColor=#FFCCCC;align=center;verticalAlign=middle;whiteSpace=wrap;rounded=0;" parent="YnKkO9R4rvAmFaV1i0---742" vertex="1">
          <mxGeometry x="210" y="48" width="25" height="20" as="geometry" />
        </mxCell>
        <mxCell id="Re4XzMObqfCqmsB2IL9Q-1" value="ap-northeast-2" style="points=[[0,0],[0.25,0],[0.5,0],[0.75,0],[1,0],[1,0.25],[1,0.5],[1,0.75],[1,1],[0.75,1],[0.5,1],[0.25,1],[0,1],[0,0.75],[0,0.5],[0,0.25]];outlineConnect=0;gradientColor=none;html=1;whiteSpace=wrap;fontSize=12;fontStyle=0;container=1;pointerEvents=0;collapsible=0;recursiveResize=0;shape=mxgraph.aws4.group;grIcon=mxgraph.aws4.group_region;strokeColor=#147EBA;fillColor=none;verticalAlign=top;align=left;spacingLeft=30;fontColor=#147EBA;dashed=1;" vertex="1" parent="1">
          <mxGeometry x="80" y="70" width="980" height="590" as="geometry" />
        </mxCell>
        <mxCell id="Re4XzMObqfCqmsB2IL9Q-2" value="my-vpc" style="points=[[0,0],[0.25,0],[0.5,0],[0.75,0],[1,0],[1,0.25],[1,0.5],[1,0.75],[1,1],[0.75,1],[0.5,1],[0.25,1],[0,1],[0,0.75],[0,0.5],[0,0.25]];outlineConnect=0;gradientColor=none;html=1;whiteSpace=wrap;fontSize=12;fontStyle=0;container=1;pointerEvents=0;collapsible=0;recursiveResize=0;shape=mxgraph.aws4.group;grIcon=mxgraph.aws4.group_vpc;strokeColor=#248814;fillColor=none;verticalAlign=top;align=left;spacingLeft=30;fontColor=#AAB7B8;dashed=0;" vertex="1" parent="Re4XzMObqfCqmsB2IL9Q-1">
          <mxGeometry x="40" y="50" width="500" height="500" as="geometry" />
        </mxCell>
        <mxCell id="Re4XzMObqfCqmsB2IL9Q-4" value="ap-northeast-2c" style="fillColor=none;strokeColor=#147EBA;dashed=1;verticalAlign=top;fontStyle=0;fontColor=#147EBA;whiteSpace=wrap;html=1;" vertex="1" parent="Re4XzMObqfCqmsB2IL9Q-2">
          <mxGeometry x="270" y="-25" width="210" height="545" as="geometry" />
        </mxCell>
        <mxCell id="Re4XzMObqfCqmsB2IL9Q-3" value="ap-northeast-2a" style="fillColor=none;strokeColor=#147EBA;dashed=1;verticalAlign=top;fontStyle=0;fontColor=#147EBA;whiteSpace=wrap;html=1;" vertex="1" parent="Re4XzMObqfCqmsB2IL9Q-2">
          <mxGeometry x="30" y="-25" width="210" height="545" as="geometry" />
        </mxCell>
        <mxCell id="Re4XzMObqfCqmsB2IL9Q-5" value="my-public-subnet-a" style="points=[[0,0],[0.25,0],[0.5,0],[0.75,0],[1,0],[1,0.25],[1,0.5],[1,0.75],[1,1],[0.75,1],[0.5,1],[0.25,1],[0,1],[0,0.75],[0,0.5],[0,0.25]];outlineConnect=0;gradientColor=none;html=1;whiteSpace=wrap;fontSize=12;fontStyle=0;container=1;pointerEvents=0;collapsible=0;recursiveResize=0;shape=mxgraph.aws4.group;grIcon=mxgraph.aws4.group_security_group;grStroke=0;strokeColor=#248814;fillColor=#E9F3E6;verticalAlign=top;align=left;spacingLeft=30;fontColor=#248814;dashed=0;" vertex="1" parent="Re4XzMObqfCqmsB2IL9Q-2">
          <mxGeometry x="40" y="30" width="190" height="130" as="geometry" />
        </mxCell>
        <mxCell id="Re4XzMObqfCqmsB2IL9Q-70" value="Security group" style="fillColor=none;strokeColor=#DD3522;verticalAlign=top;fontStyle=0;fontColor=#DD3522;whiteSpace=wrap;html=1;" vertex="1" parent="Re4XzMObqfCqmsB2IL9Q-5">
          <mxGeometry x="48.5" y="20" width="91.5" height="100" as="geometry" />
        </mxCell>
        <mxCell id="Re4XzMObqfCqmsB2IL9Q-12" value="my-natgateway" style="outlineConnect=0;dashed=0;verticalLabelPosition=bottom;verticalAlign=top;align=center;html=1;shape=mxgraph.aws3.vpc_nat_gateway;fillColor=#F58534;gradientColor=none;" vertex="1" parent="Re4XzMObqfCqmsB2IL9Q-5">
          <mxGeometry x="72" y="59" width="44" height="40" as="geometry" />
        </mxCell>
        <mxCell id="Re4XzMObqfCqmsB2IL9Q-42" value="" style="outlineConnect=0;dashed=0;verticalLabelPosition=bottom;verticalAlign=top;align=center;html=1;shape=mxgraph.aws3.elastic_ip;fillColor=#F58534;gradientColor=none;" vertex="1" parent="Re4XzMObqfCqmsB2IL9Q-5">
          <mxGeometry x="73.5" y="44" width="43" height="15" as="geometry" />
        </mxCell>
        <mxCell id="Re4XzMObqfCqmsB2IL9Q-6" value="my-private-subnet-app-a" style="points=[[0,0],[0.25,0],[0.5,0],[0.75,0],[1,0],[1,0.25],[1,0.5],[1,0.75],[1,1],[0.75,1],[0.5,1],[0.25,1],[0,1],[0,0.75],[0,0.5],[0,0.25]];outlineConnect=0;gradientColor=none;html=1;whiteSpace=wrap;fontSize=12;fontStyle=0;container=1;pointerEvents=0;collapsible=0;recursiveResize=0;shape=mxgraph.aws4.group;grIcon=mxgraph.aws4.group_security_group;grStroke=0;strokeColor=#147EBA;fillColor=#E6F2F8;verticalAlign=top;align=left;spacingLeft=30;fontColor=#147EBA;dashed=0;" vertex="1" parent="Re4XzMObqfCqmsB2IL9Q-2">
          <mxGeometry x="40" y="180" width="190" height="130" as="geometry" />
        </mxCell>
        <mxCell id="Re4XzMObqfCqmsB2IL9Q-43" value="" style="sketch=0;outlineConnect=0;fontColor=#232F3E;gradientColor=none;fillColor=#D45B07;strokeColor=none;dashed=0;verticalLabelPosition=bottom;verticalAlign=top;align=center;html=1;fontSize=12;fontStyle=0;aspect=fixed;pointerEvents=1;shape=mxgraph.aws4.instance2;" vertex="1" parent="Re4XzMObqfCqmsB2IL9Q-6">
          <mxGeometry x="70" y="46" width="48" height="48" as="geometry" />
        </mxCell>
        <mxCell id="Re4XzMObqfCqmsB2IL9Q-71" value="Security group" style="fillColor=none;strokeColor=#DD3522;verticalAlign=top;fontStyle=0;fontColor=#DD3522;whiteSpace=wrap;html=1;" vertex="1" parent="Re4XzMObqfCqmsB2IL9Q-6">
          <mxGeometry x="9.5" y="32" width="95" height="90" as="geometry" />
        </mxCell>
        <mxCell id="Re4XzMObqfCqmsB2IL9Q-7" value="my-private-subnet-db-a" style="points=[[0,0],[0.25,0],[0.5,0],[0.75,0],[1,0],[1,0.25],[1,0.5],[1,0.75],[1,1],[0.75,1],[0.5,1],[0.25,1],[0,1],[0,0.75],[0,0.5],[0,0.25]];outlineConnect=0;gradientColor=none;html=1;whiteSpace=wrap;fontSize=12;fontStyle=0;container=1;pointerEvents=0;collapsible=0;recursiveResize=0;shape=mxgraph.aws4.group;grIcon=mxgraph.aws4.group_security_group;grStroke=0;strokeColor=#147EBA;fillColor=#E6F2F8;verticalAlign=top;align=left;spacingLeft=30;fontColor=#147EBA;dashed=0;" vertex="1" parent="Re4XzMObqfCqmsB2IL9Q-2">
          <mxGeometry x="40" y="330" width="190" height="130" as="geometry" />
        </mxCell>
        <mxCell id="Re4XzMObqfCqmsB2IL9Q-8" value="my-public-subnet-c" style="points=[[0,0],[0.25,0],[0.5,0],[0.75,0],[1,0],[1,0.25],[1,0.5],[1,0.75],[1,1],[0.75,1],[0.5,1],[0.25,1],[0,1],[0,0.75],[0,0.5],[0,0.25]];outlineConnect=0;gradientColor=none;html=1;whiteSpace=wrap;fontSize=12;fontStyle=0;container=1;pointerEvents=0;collapsible=0;recursiveResize=0;shape=mxgraph.aws4.group;grIcon=mxgraph.aws4.group_security_group;grStroke=0;strokeColor=#248814;fillColor=#E9F3E6;verticalAlign=top;align=left;spacingLeft=30;fontColor=#248814;dashed=0;" vertex="1" parent="Re4XzMObqfCqmsB2IL9Q-2">
          <mxGeometry x="280" y="30" width="190" height="130" as="geometry" />
        </mxCell>
        <mxCell id="Re4XzMObqfCqmsB2IL9Q-10" value="my-private-subnet-app-c" style="points=[[0,0],[0.25,0],[0.5,0],[0.75,0],[1,0],[1,0.25],[1,0.5],[1,0.75],[1,1],[0.75,1],[0.5,1],[0.25,1],[0,1],[0,0.75],[0,0.5],[0,0.25]];outlineConnect=0;gradientColor=none;html=1;whiteSpace=wrap;fontSize=12;fontStyle=0;container=1;pointerEvents=0;collapsible=0;recursiveResize=0;shape=mxgraph.aws4.group;grIcon=mxgraph.aws4.group_security_group;grStroke=0;strokeColor=#147EBA;fillColor=#E6F2F8;verticalAlign=top;align=left;spacingLeft=30;fontColor=#147EBA;dashed=0;" vertex="1" parent="Re4XzMObqfCqmsB2IL9Q-2">
          <mxGeometry x="280" y="180" width="190" height="130" as="geometry" />
        </mxCell>
        <mxCell id="Re4XzMObqfCqmsB2IL9Q-11" value="my-private-subnet-db-c" style="points=[[0,0],[0.25,0],[0.5,0],[0.75,0],[1,0],[1,0.25],[1,0.5],[1,0.75],[1,1],[0.75,1],[0.5,1],[0.25,1],[0,1],[0,0.75],[0,0.5],[0,0.25]];outlineConnect=0;gradientColor=none;html=1;whiteSpace=wrap;fontSize=12;fontStyle=0;container=1;pointerEvents=0;collapsible=0;recursiveResize=0;shape=mxgraph.aws4.group;grIcon=mxgraph.aws4.group_security_group;grStroke=0;strokeColor=#147EBA;fillColor=#E6F2F8;verticalAlign=top;align=left;spacingLeft=30;fontColor=#147EBA;dashed=0;" vertex="1" parent="Re4XzMObqfCqmsB2IL9Q-2">
          <mxGeometry x="280" y="330" width="190" height="130" as="geometry" />
        </mxCell>
        <mxCell id="Re4XzMObqfCqmsB2IL9Q-13" value="" style="sketch=0;outlineConnect=0;fontColor=#232F3E;gradientColor=none;fillColor=#4D27AA;strokeColor=none;dashed=0;verticalLabelPosition=bottom;verticalAlign=top;align=center;html=1;fontSize=12;fontStyle=0;aspect=fixed;pointerEvents=1;shape=mxgraph.aws4.route_table;" vertex="1" parent="Re4XzMObqfCqmsB2IL9Q-1">
          <mxGeometry x="710" y="280" width="51.32" height="50" as="geometry" />
        </mxCell>
        <mxCell id="Re4XzMObqfCqmsB2IL9Q-14" value="&amp;nbsp;VPC IP&lt;br&gt;&lt;font style=&quot;font-size: 16px;&quot;&gt;10.0.0.0/16&lt;/font&gt;" style="text;html=1;strokeColor=none;fillColor=none;align=center;verticalAlign=middle;whiteSpace=wrap;rounded=0;" vertex="1" parent="Re4XzMObqfCqmsB2IL9Q-1">
          <mxGeometry x="687.5" y="30" width="110" height="30" as="geometry" />
        </mxCell>
        <mxCell id="Re4XzMObqfCqmsB2IL9Q-15" value="&amp;nbsp;Subnet IP" style="text;html=1;strokeColor=none;fillColor=none;align=center;verticalAlign=middle;whiteSpace=wrap;rounded=0;" vertex="1" parent="Re4XzMObqfCqmsB2IL9Q-1">
          <mxGeometry x="690" y="68" width="110" height="20" as="geometry" />
        </mxCell>
        <mxCell id="Re4XzMObqfCqmsB2IL9Q-41" value="my-igw" style="sketch=0;outlineConnect=0;fontColor=#232F3E;gradientColor=none;fillColor=#4D27AA;strokeColor=none;dashed=0;verticalLabelPosition=bottom;verticalAlign=top;align=center;html=1;fontSize=12;fontStyle=0;aspect=fixed;pointerEvents=1;shape=mxgraph.aws4.internet_gateway;" vertex="1" parent="Re4XzMObqfCqmsB2IL9Q-1">
          <mxGeometry x="275" y="30" width="38" height="38" as="geometry" />
        </mxCell>
        <mxCell id="Re4XzMObqfCqmsB2IL9Q-16" value="" style="shape=table;startSize=0;container=1;collapsible=0;childLayout=tableLayout;fontSize=16;" vertex="1" parent="Re4XzMObqfCqmsB2IL9Q-1">
          <mxGeometry x="550" y="100" width="385" height="162" as="geometry" />
        </mxCell>
        <mxCell id="Re4XzMObqfCqmsB2IL9Q-17" value="" style="shape=tableRow;horizontal=0;startSize=0;swimlaneHead=0;swimlaneBody=0;strokeColor=inherit;top=0;left=0;bottom=0;right=0;collapsible=0;dropTarget=0;fillColor=none;points=[[0,0.5],[1,0.5]];portConstraint=eastwest;fontSize=16;" vertex="1" parent="Re4XzMObqfCqmsB2IL9Q-16">
          <mxGeometry width="385" height="23" as="geometry" />
        </mxCell>
        <mxCell id="Re4XzMObqfCqmsB2IL9Q-18" value="subnet name" style="shape=partialRectangle;html=1;whiteSpace=wrap;connectable=0;strokeColor=inherit;overflow=hidden;fillColor=none;top=0;left=0;bottom=0;right=0;pointerEvents=1;fontSize=16;" vertex="1" parent="Re4XzMObqfCqmsB2IL9Q-17">
          <mxGeometry width="193" height="23" as="geometry">
            <mxRectangle width="193" height="23" as="alternateBounds" />
          </mxGeometry>
        </mxCell>
        <mxCell id="Re4XzMObqfCqmsB2IL9Q-19" value="ipv4 CIDR" style="shape=partialRectangle;html=1;whiteSpace=wrap;connectable=0;strokeColor=inherit;overflow=hidden;fillColor=none;top=0;left=0;bottom=0;right=0;pointerEvents=1;fontSize=16;" vertex="1" parent="Re4XzMObqfCqmsB2IL9Q-17">
          <mxGeometry x="193" width="192" height="23" as="geometry">
            <mxRectangle width="192" height="23" as="alternateBounds" />
          </mxGeometry>
        </mxCell>
        <mxCell id="Re4XzMObqfCqmsB2IL9Q-21" value="" style="shape=tableRow;horizontal=0;startSize=0;swimlaneHead=0;swimlaneBody=0;strokeColor=inherit;top=0;left=0;bottom=0;right=0;collapsible=0;dropTarget=0;fillColor=none;points=[[0,0.5],[1,0.5]];portConstraint=eastwest;fontSize=16;" vertex="1" parent="Re4XzMObqfCqmsB2IL9Q-16">
          <mxGeometry y="23" width="385" height="24" as="geometry" />
        </mxCell>
        <mxCell id="Re4XzMObqfCqmsB2IL9Q-22" value="&lt;font style=&quot;font-size: 9px;&quot;&gt;my-public-subnet-a&lt;/font&gt;" style="shape=partialRectangle;html=1;whiteSpace=wrap;connectable=0;strokeColor=inherit;overflow=hidden;fillColor=none;top=0;left=0;bottom=0;right=0;pointerEvents=1;fontSize=16;" vertex="1" parent="Re4XzMObqfCqmsB2IL9Q-21">
          <mxGeometry width="193" height="24" as="geometry">
            <mxRectangle width="193" height="24" as="alternateBounds" />
          </mxGeometry>
        </mxCell>
        <mxCell id="Re4XzMObqfCqmsB2IL9Q-23" value="10.0.0.0/26" style="shape=partialRectangle;html=1;whiteSpace=wrap;connectable=0;strokeColor=inherit;overflow=hidden;fillColor=none;top=0;left=0;bottom=0;right=0;pointerEvents=1;fontSize=16;" vertex="1" parent="Re4XzMObqfCqmsB2IL9Q-21">
          <mxGeometry x="193" width="192" height="24" as="geometry">
            <mxRectangle width="192" height="24" as="alternateBounds" />
          </mxGeometry>
        </mxCell>
        <mxCell id="Re4XzMObqfCqmsB2IL9Q-25" value="" style="shape=tableRow;horizontal=0;startSize=0;swimlaneHead=0;swimlaneBody=0;strokeColor=inherit;top=0;left=0;bottom=0;right=0;collapsible=0;dropTarget=0;fillColor=none;points=[[0,0.5],[1,0.5]];portConstraint=eastwest;fontSize=16;" vertex="1" parent="Re4XzMObqfCqmsB2IL9Q-16">
          <mxGeometry y="47" width="385" height="23" as="geometry" />
        </mxCell>
        <mxCell id="Re4XzMObqfCqmsB2IL9Q-26" value="&lt;font style=&quot;font-size: 9px;&quot;&gt;my-public-subnet-c&lt;/font&gt;" style="shape=partialRectangle;html=1;whiteSpace=wrap;connectable=0;strokeColor=inherit;overflow=hidden;fillColor=none;top=0;left=0;bottom=0;right=0;pointerEvents=1;fontSize=16;" vertex="1" parent="Re4XzMObqfCqmsB2IL9Q-25">
          <mxGeometry width="193" height="23" as="geometry">
            <mxRectangle width="193" height="23" as="alternateBounds" />
          </mxGeometry>
        </mxCell>
        <mxCell id="Re4XzMObqfCqmsB2IL9Q-27" value="10.0.0.64/26" style="shape=partialRectangle;html=1;whiteSpace=wrap;connectable=0;strokeColor=inherit;overflow=hidden;fillColor=none;top=0;left=0;bottom=0;right=0;pointerEvents=1;fontSize=16;" vertex="1" parent="Re4XzMObqfCqmsB2IL9Q-25">
          <mxGeometry x="193" width="192" height="23" as="geometry">
            <mxRectangle width="192" height="23" as="alternateBounds" />
          </mxGeometry>
        </mxCell>
        <mxCell id="Re4XzMObqfCqmsB2IL9Q-29" style="shape=tableRow;horizontal=0;startSize=0;swimlaneHead=0;swimlaneBody=0;strokeColor=inherit;top=0;left=0;bottom=0;right=0;collapsible=0;dropTarget=0;fillColor=none;points=[[0,0.5],[1,0.5]];portConstraint=eastwest;fontSize=16;" vertex="1" parent="Re4XzMObqfCqmsB2IL9Q-16">
          <mxGeometry y="70" width="385" height="23" as="geometry" />
        </mxCell>
        <mxCell id="Re4XzMObqfCqmsB2IL9Q-30" value="&lt;font style=&quot;font-size: 9px;&quot;&gt;my-private-subnet-app-a&lt;/font&gt;" style="shape=partialRectangle;html=1;whiteSpace=wrap;connectable=0;strokeColor=inherit;overflow=hidden;fillColor=none;top=0;left=0;bottom=0;right=0;pointerEvents=1;fontSize=16;" vertex="1" parent="Re4XzMObqfCqmsB2IL9Q-29">
          <mxGeometry width="193" height="23" as="geometry">
            <mxRectangle width="193" height="23" as="alternateBounds" />
          </mxGeometry>
        </mxCell>
        <mxCell id="Re4XzMObqfCqmsB2IL9Q-31" value="10.0.0.128/27" style="shape=partialRectangle;html=1;whiteSpace=wrap;connectable=0;strokeColor=inherit;overflow=hidden;fillColor=none;top=0;left=0;bottom=0;right=0;pointerEvents=1;fontSize=16;" vertex="1" parent="Re4XzMObqfCqmsB2IL9Q-29">
          <mxGeometry x="193" width="192" height="23" as="geometry">
            <mxRectangle width="192" height="23" as="alternateBounds" />
          </mxGeometry>
        </mxCell>
        <mxCell id="Re4XzMObqfCqmsB2IL9Q-32" style="shape=tableRow;horizontal=0;startSize=0;swimlaneHead=0;swimlaneBody=0;strokeColor=inherit;top=0;left=0;bottom=0;right=0;collapsible=0;dropTarget=0;fillColor=none;points=[[0,0.5],[1,0.5]];portConstraint=eastwest;fontSize=16;" vertex="1" parent="Re4XzMObqfCqmsB2IL9Q-16">
          <mxGeometry y="93" width="385" height="23" as="geometry" />
        </mxCell>
        <mxCell id="Re4XzMObqfCqmsB2IL9Q-33" value="&lt;font style=&quot;font-size: 9px;&quot;&gt;my-private-subnet-app-a&lt;/font&gt;" style="shape=partialRectangle;html=1;whiteSpace=wrap;connectable=0;strokeColor=inherit;overflow=hidden;fillColor=none;top=0;left=0;bottom=0;right=0;pointerEvents=1;fontSize=16;" vertex="1" parent="Re4XzMObqfCqmsB2IL9Q-32">
          <mxGeometry width="193" height="23" as="geometry">
            <mxRectangle width="193" height="23" as="alternateBounds" />
          </mxGeometry>
        </mxCell>
        <mxCell id="Re4XzMObqfCqmsB2IL9Q-34" value="10.0.0.160/27" style="shape=partialRectangle;html=1;whiteSpace=wrap;connectable=0;strokeColor=inherit;overflow=hidden;fillColor=none;top=0;left=0;bottom=0;right=0;pointerEvents=1;fontSize=16;" vertex="1" parent="Re4XzMObqfCqmsB2IL9Q-32">
          <mxGeometry x="193" width="192" height="23" as="geometry">
            <mxRectangle width="192" height="23" as="alternateBounds" />
          </mxGeometry>
        </mxCell>
        <mxCell id="Re4XzMObqfCqmsB2IL9Q-35" style="shape=tableRow;horizontal=0;startSize=0;swimlaneHead=0;swimlaneBody=0;strokeColor=inherit;top=0;left=0;bottom=0;right=0;collapsible=0;dropTarget=0;fillColor=none;points=[[0,0.5],[1,0.5]];portConstraint=eastwest;fontSize=16;" vertex="1" parent="Re4XzMObqfCqmsB2IL9Q-16">
          <mxGeometry y="116" width="385" height="23" as="geometry" />
        </mxCell>
        <mxCell id="Re4XzMObqfCqmsB2IL9Q-36" value="&lt;font style=&quot;font-size: 9px;&quot;&gt;my-private-subnet-db-a&lt;/font&gt;" style="shape=partialRectangle;html=1;whiteSpace=wrap;connectable=0;strokeColor=inherit;overflow=hidden;fillColor=none;top=0;left=0;bottom=0;right=0;pointerEvents=1;fontSize=16;" vertex="1" parent="Re4XzMObqfCqmsB2IL9Q-35">
          <mxGeometry width="193" height="23" as="geometry">
            <mxRectangle width="193" height="23" as="alternateBounds" />
          </mxGeometry>
        </mxCell>
        <mxCell id="Re4XzMObqfCqmsB2IL9Q-37" value="10.0.0.192/27" style="shape=partialRectangle;html=1;whiteSpace=wrap;connectable=0;strokeColor=inherit;overflow=hidden;fillColor=none;top=0;left=0;bottom=0;right=0;pointerEvents=1;fontSize=16;" vertex="1" parent="Re4XzMObqfCqmsB2IL9Q-35">
          <mxGeometry x="193" width="192" height="23" as="geometry">
            <mxRectangle width="192" height="23" as="alternateBounds" />
          </mxGeometry>
        </mxCell>
        <mxCell id="Re4XzMObqfCqmsB2IL9Q-38" style="shape=tableRow;horizontal=0;startSize=0;swimlaneHead=0;swimlaneBody=0;strokeColor=inherit;top=0;left=0;bottom=0;right=0;collapsible=0;dropTarget=0;fillColor=none;points=[[0,0.5],[1,0.5]];portConstraint=eastwest;fontSize=16;" vertex="1" parent="Re4XzMObqfCqmsB2IL9Q-16">
          <mxGeometry y="139" width="385" height="23" as="geometry" />
        </mxCell>
        <mxCell id="Re4XzMObqfCqmsB2IL9Q-39" value="&lt;font style=&quot;font-size: 9px;&quot;&gt;my-private-subnet-db-c&lt;/font&gt;" style="shape=partialRectangle;html=1;whiteSpace=wrap;connectable=0;strokeColor=inherit;overflow=hidden;fillColor=none;top=0;left=0;bottom=0;right=0;pointerEvents=1;fontSize=16;" vertex="1" parent="Re4XzMObqfCqmsB2IL9Q-38">
          <mxGeometry width="193" height="23" as="geometry">
            <mxRectangle width="193" height="23" as="alternateBounds" />
          </mxGeometry>
        </mxCell>
        <mxCell id="Re4XzMObqfCqmsB2IL9Q-40" value="10.0.0.224/27" style="shape=partialRectangle;html=1;whiteSpace=wrap;connectable=0;strokeColor=inherit;overflow=hidden;fillColor=none;top=0;left=0;bottom=0;right=0;pointerEvents=1;fontSize=16;" vertex="1" parent="Re4XzMObqfCqmsB2IL9Q-38">
          <mxGeometry x="193" width="192" height="23" as="geometry">
            <mxRectangle width="192" height="23" as="alternateBounds" />
          </mxGeometry>
        </mxCell>
        <mxCell id="Re4XzMObqfCqmsB2IL9Q-44" value="" style="shape=table;startSize=0;container=1;collapsible=0;childLayout=tableLayout;fontSize=16;" vertex="1" parent="Re4XzMObqfCqmsB2IL9Q-1">
          <mxGeometry x="552.5" y="340" width="371.5" height="70" as="geometry" />
        </mxCell>
        <mxCell id="Re4XzMObqfCqmsB2IL9Q-45" value="" style="shape=tableRow;horizontal=0;startSize=0;swimlaneHead=0;swimlaneBody=0;strokeColor=inherit;top=0;left=0;bottom=0;right=0;collapsible=0;dropTarget=0;fillColor=none;points=[[0,0.5],[1,0.5]];portConstraint=eastwest;fontSize=16;" vertex="1" parent="Re4XzMObqfCqmsB2IL9Q-44">
          <mxGeometry width="371.5" height="23" as="geometry" />
        </mxCell>
        <mxCell id="Re4XzMObqfCqmsB2IL9Q-46" value="Routing table" style="shape=partialRectangle;html=1;whiteSpace=wrap;connectable=0;strokeColor=inherit;overflow=hidden;fillColor=none;top=0;left=0;bottom=0;right=0;pointerEvents=1;fontSize=16;" vertex="1" parent="Re4XzMObqfCqmsB2IL9Q-45">
          <mxGeometry width="124" height="23" as="geometry">
            <mxRectangle width="124" height="23" as="alternateBounds" />
          </mxGeometry>
        </mxCell>
        <mxCell id="Re4XzMObqfCqmsB2IL9Q-47" value="Destination" style="shape=partialRectangle;html=1;whiteSpace=wrap;connectable=0;strokeColor=inherit;overflow=hidden;fillColor=none;top=0;left=0;bottom=0;right=0;pointerEvents=1;fontSize=16;" vertex="1" parent="Re4XzMObqfCqmsB2IL9Q-45">
          <mxGeometry x="124" width="124" height="23" as="geometry">
            <mxRectangle width="124" height="23" as="alternateBounds" />
          </mxGeometry>
        </mxCell>
        <mxCell id="Re4XzMObqfCqmsB2IL9Q-66" value="Target" style="shape=partialRectangle;html=1;whiteSpace=wrap;connectable=0;strokeColor=inherit;overflow=hidden;fillColor=none;top=0;left=0;bottom=0;right=0;pointerEvents=1;fontSize=16;" vertex="1" parent="Re4XzMObqfCqmsB2IL9Q-45">
          <mxGeometry x="248" width="124" height="23" as="geometry">
            <mxRectangle width="124" height="23" as="alternateBounds" />
          </mxGeometry>
        </mxCell>
        <mxCell id="Re4XzMObqfCqmsB2IL9Q-48" value="" style="shape=tableRow;horizontal=0;startSize=0;swimlaneHead=0;swimlaneBody=0;strokeColor=inherit;top=0;left=0;bottom=0;right=0;collapsible=0;dropTarget=0;fillColor=none;points=[[0,0.5],[1,0.5]];portConstraint=eastwest;fontSize=16;" vertex="1" parent="Re4XzMObqfCqmsB2IL9Q-44">
          <mxGeometry y="23" width="371.5" height="24" as="geometry" />
        </mxCell>
        <mxCell id="Re4XzMObqfCqmsB2IL9Q-49" value="&lt;font style=&quot;font-size: 9px;&quot;&gt;my-public-route&lt;/font&gt;" style="shape=partialRectangle;html=1;whiteSpace=wrap;connectable=0;strokeColor=inherit;overflow=hidden;fillColor=none;top=0;left=0;bottom=0;right=0;pointerEvents=1;fontSize=16;" vertex="1" parent="Re4XzMObqfCqmsB2IL9Q-48">
          <mxGeometry width="124" height="24" as="geometry">
            <mxRectangle width="124" height="24" as="alternateBounds" />
          </mxGeometry>
        </mxCell>
        <mxCell id="Re4XzMObqfCqmsB2IL9Q-50" value="0.0.0.0/0" style="shape=partialRectangle;html=1;whiteSpace=wrap;connectable=0;strokeColor=inherit;overflow=hidden;fillColor=none;top=0;left=0;bottom=0;right=0;pointerEvents=1;fontSize=16;" vertex="1" parent="Re4XzMObqfCqmsB2IL9Q-48">
          <mxGeometry x="124" width="124" height="24" as="geometry">
            <mxRectangle width="124" height="24" as="alternateBounds" />
          </mxGeometry>
        </mxCell>
        <mxCell id="Re4XzMObqfCqmsB2IL9Q-67" value="my-igw" style="shape=partialRectangle;html=1;whiteSpace=wrap;connectable=0;strokeColor=inherit;overflow=hidden;fillColor=none;top=0;left=0;bottom=0;right=0;pointerEvents=1;fontSize=16;" vertex="1" parent="Re4XzMObqfCqmsB2IL9Q-48">
          <mxGeometry x="248" width="124" height="24" as="geometry">
            <mxRectangle width="124" height="24" as="alternateBounds" />
          </mxGeometry>
        </mxCell>
        <mxCell id="Re4XzMObqfCqmsB2IL9Q-51" value="" style="shape=tableRow;horizontal=0;startSize=0;swimlaneHead=0;swimlaneBody=0;strokeColor=inherit;top=0;left=0;bottom=0;right=0;collapsible=0;dropTarget=0;fillColor=none;points=[[0,0.5],[1,0.5]];portConstraint=eastwest;fontSize=16;" vertex="1" parent="Re4XzMObqfCqmsB2IL9Q-44">
          <mxGeometry y="47" width="371.5" height="23" as="geometry" />
        </mxCell>
        <mxCell id="Re4XzMObqfCqmsB2IL9Q-52" value="&lt;font style=&quot;font-size: 9px;&quot;&gt;my-private-route&lt;/font&gt;" style="shape=partialRectangle;html=1;whiteSpace=wrap;connectable=0;strokeColor=inherit;overflow=hidden;fillColor=none;top=0;left=0;bottom=0;right=0;pointerEvents=1;fontSize=16;" vertex="1" parent="Re4XzMObqfCqmsB2IL9Q-51">
          <mxGeometry width="124" height="23" as="geometry">
            <mxRectangle width="124" height="23" as="alternateBounds" />
          </mxGeometry>
        </mxCell>
        <mxCell id="Re4XzMObqfCqmsB2IL9Q-53" value="0.0.0.0/0" style="shape=partialRectangle;html=1;whiteSpace=wrap;connectable=0;strokeColor=inherit;overflow=hidden;fillColor=none;top=0;left=0;bottom=0;right=0;pointerEvents=1;fontSize=16;" vertex="1" parent="Re4XzMObqfCqmsB2IL9Q-51">
          <mxGeometry x="124" width="124" height="23" as="geometry">
            <mxRectangle width="124" height="23" as="alternateBounds" />
          </mxGeometry>
        </mxCell>
        <mxCell id="Re4XzMObqfCqmsB2IL9Q-68" value="my-natgateway" style="shape=partialRectangle;html=1;whiteSpace=wrap;connectable=0;strokeColor=inherit;overflow=hidden;fillColor=none;top=0;left=0;bottom=0;right=0;pointerEvents=1;fontSize=16;" vertex="1" parent="Re4XzMObqfCqmsB2IL9Q-51">
          <mxGeometry x="248" width="124" height="23" as="geometry">
            <mxRectangle width="124" height="23" as="alternateBounds" />
          </mxGeometry>
        </mxCell>
        <mxCell id="Re4XzMObqfCqmsB2IL9Q-69" value="&lt;font style=&quot;font-size: 16px;&quot;&gt;추가로 public route는 public 서브넷 2개&lt;br&gt;private route는 private 서브넷 4개 연결&lt;/font&gt;" style="text;html=1;strokeColor=none;fillColor=none;align=center;verticalAlign=middle;whiteSpace=wrap;rounded=0;" vertex="1" parent="Re4XzMObqfCqmsB2IL9Q-1">
          <mxGeometry x="584.5" y="420" width="316" height="30" as="geometry" />
        </mxCell>
      </root>
    </mxGraphModel>
  </diagram>
</mxfile>
